HIERARCHY
ROOT Hips
{
  OFFSET 13.6774 106.653 -34.4427
  CHANNELS 6 Xposition Yposition Zposition Zrotation Xrotation Yrotation
  JOINT ToSpine
  {
    OFFSET -2.69724 7.43032 -0.144315
    CHANNELS 3 Zrotation Xrotation Yrotation
    JOINT Spine
    {
      OFFSET -0.0310711 10.7595 1.96963
      CHANNELS 3 Zrotation Xrotation Yrotation
      JOINT Spine1
      {
        OFFSET 19.9056 3.91189 0.764692
        CHANNELS 3 Zrotation Xrotation Yrotation
        JOINT Neck
        {
          OFFSET 25.9749 7.03908 -0.130764
          CHANNELS 3 Zrotation Xrotation Yrotation
          JOINT Head
          {
            OFFSET 9.52751 0.295786 -0.907742
            CHANNELS 3 Zrotation Xrotation Yrotation
            End Site
            {
              OFFSET 16.4037 0.713936 2.7358
            }
          }
        }
        JOINT LeftShoulder
        {
          OFFSET 17.7449 4.33886 11.7777
          CHANNELS 3 Zrotation Xrotation Yrotation
          JOINT LeftArm
          {
            OFFSET 0.911315 1.27913 9.80584
            CHANNELS 3 Zrotation Xrotation Yrotation
            JOINT LeftForeArm
            {
              OFFSET 28.6126 1.18197 -3.53199
              CHANNELS 3 Zrotation Xrotation Yrotation
              JOINT LeftHand
              {
                OFFSET 27.5088 0.0218783 0.327423
                CHANNELS 3 Zrotation Xrotation Yrotation
                End Site
                {
                  OFFSET 18.6038 -0.000155887 0.382096
                }
              }
            }
          }
        }
        JOINT RightShoulder
        {
          OFFSET 17.1009 2.89543 -12.2328
          CHANNELS 3 Zrotation Xrotation Yrotation
          JOINT RightArm
          {
            OFFSET 1.4228 0.178766 -10.211
            CHANNELS 3 Zrotation Xrotation Yrotation
            JOINT RightForeArm
            {
              OFFSET 28.733 1.87905 2.64907
              CHANNELS 3 Zrotation Xrotation Yrotation
              JOINT RightHand
              {
                OFFSET 27.4588 0.290562 -0.101845
                CHANNELS 3 Zrotation Xrotation Yrotation
                End Site
                {
                  OFFSET 17.8396 -0.255518 -0.000602873
                }
              }
            }
          }
        }
      }
    }
  }
  JOINT LeftUpLeg
  {
    OFFSET -5.61296 -2.22332 -10.2353
    CHANNELS 3 Zrotation Xrotation Yrotation
    JOINT LeftLeg
    {
      OFFSET 2.56703 -44.7417 -7.93097
      CHANNELS 3 Zrotation Xrotation Yrotation
      JOINT LeftFoot
      {
        OFFSET 3.16933 -46.5642 -3.96578
        CHANNELS 3 Zrotation Xrotation Yrotation
        JOINT LeftToeBase
        {
          OFFSET 0.346054 -6.02161 12.8035
          CHANNELS 3 Zrotation Xrotation Yrotation
          End Site
          {
            OFFSET 0.134235 -1.35082 5.13018
          }
        }
      }
    }
  }
  JOINT RightUpLeg
  {
    OFFSET -5.7928 -1.72406 10.6446
    CHANNELS 3 Zrotation Xrotation Yrotation
    JOINT RightLeg
    {
      OFFSET -2.57161 -44.7178 -7.85259
      CHANNELS 3 Zrotation Xrotation Yrotation
      JOINT RightFoot
      {
        OFFSET -3.10148 -46.5936 -4.03391
        CHANNELS 3 Zrotation Xrotation Yrotation
        JOINT RightToeBase
        {
          OFFSET -0.0828122 -6.13587 12.8035
          CHANNELS 3 Zrotation Xrotation Yrotation
          End Site
          {
            OFFSET -0.131328 -1.35082 5.13018
          }
        }
      }
    }
  }
}
MOTION
Frames: 12
Frame Time: 0.03333333333333333
0.0000 93.1000 0.0000 -66.6567 -2.3926 -179.1522 -71.0149 -2.3690 87.9849 131.1442 62.7875 -63.5033 -8.7152 19.2263 7.7580 -138.2404 49.0578 139.6569 81.7396 81.1318 -51.4898 0.1209 -16.2155 -26.0287 -105.1531 28.3541 -78.5747 18.2956 7.0083 -69.5106 -0.1772 -2.3951 0.5673 -3.1962 6.2392 47.0588 -65.0767 -30.2580 90.1145 15.8826 -20.3557 39.8301 1.3564 2.0419 1.1682 -5.8170 20.6161 77.7281 -26.2978 78.3199 -2.1885 -6.9059 -8.6612 0.0341 11.1942 -22.7060 21.8971 -10.8602 -2.0492 89.2712 164.8629 71.4046 -167.8883 -7.4846 -22.5410 -0.2826 2.4809 -21.3671 -26.2008 
0.0000 93.1000 0.0000 -64.7884 -1.3025 178.8351 -71.0146 -0.6189 87.9888 130.1861 62.1204 -60.7366 -8.5662 18.7878 8.2236 -140.3381 49.4632 140.7956 83.7191 82.8085 -53.5474 -0.7065 -16.2650 -25.2628 -102.1746 27.8929 -79.7316 21.6336 6.5838 -72.7515 -0.7466 -0.3948 0.0713 -3.3312 6.2335 48.0951 -60.8929 -32.2484 87.6634 16.3696 -21.0311 40.8579 0.0813 0.3912 -0.2240 -6.6091 21.7549 78.2476 -21.9492 76.1105 -5.8124 -6.9787 -10.4499 -0.5464 12.1997 -24.1134 24.0329 -6.8679 -3.5244 87.9445 165.0029 70.9792 -167.0135 -10.0408 -19.9767 0.6926 0.3459 -26.1622 -31.5896 
0.0000 93.1000 0.0000 -64.0902 2.0180 177.2096 -71.0110 0.2386 87.9853 130.1361 62.1159 -59.9287 -8.2461 18.1967 8.1707 -145.1453 49.3941 143.8981 83.7247 83.7999 -54.2612 0.1984 -16.5154 -26.0417 -98.6697 29.0196 -77.5560 22.3572 5.7452 -75.1355 -0.3350 0.0564 -0.3474 -2.5923 6.1772 46.7979 -58.8734 -34.9292 83.9523 18.0501 -20.0755 43.9763 -0.2907 0.0181 -0.4474 -12.0804 25.2904 80.9941 -17.3439 73.0434 -11.1589 -7.6605 -9.7207 -1.2539 13.0247 -23.9251 25.9741 -3.7138 -6.0179 86.9368 164.9493 71.9561 -169.0242 -11.9897 -15.8928 1.2821 -1.0924 -30.2812 -27.7151 
0.0000 93.1000 0.0000 -64.0413 6.0923 173.2546 -71.0100 0.4358 87.9855 129.1264 62.1455 -58.5376 -8.8449 17.7638 8.3433 -148.3821 48.6715 148.6686 89.4486 84.0070 -61.4130 0.1050 -16.3318 -26.3823 -95.3596 29.9449 -74.6623 26.1284 7.3399 -75.1351 0.0312 0.1864 -0.4186 -2.4587 5.8393 45.8373 -57.2648 -37.1324 79.8027 19.8858 -20.0540 47.8639 -0.4677 -0.0612 -0.5331 -20.4082 28.2516 85.5790 -11.8368 67.9869 -16.9343 -9.1389 -8.7100 -1.0068 13.3460 -26.0499 27.3120 -2.1486 -8.8492 86.9927 161.8624 73.9455 -160.0729 -12.4183 -11.4513 1.1592 -0.9506 -36.3169 -34.6541 
0.0000 93.1000 0.0000 -63.9293 10.8837 169.3320 -70.9998 1.1105 87.9857 129.0828 62.1108 -55.8293 -9.4590 17.4905 7.7748 -150.2302 48.2124 152.8758 106.5091 85.0061 -78.2025 -0.1962 -15.9769 -27.6928 -90.9801 33.2328 -70.7164 29.0291 9.3728 -73.1442 0.2571 0.7855 -0.7942 -2.4093 5.6995 45.1172 -58.9454 -40.0547 75.0306 20.7741 -19.2027 49.7722 -0.8270 -0.6327 -0.9978 -32.1035 29.9364 94.0276 -7.1181 58.2095 -15.9390 -9.6538 -7.2548 -0.8728 12.4611 -24.2993 20.0867 -0.9542 -13.0396 85.3096 158.2193 77.0964 -159.1692 -12.0634 -13.4608 1.7456 -2.2265 -32.5642 -33.2853 
0.0000 93.1000 0.0000 -61.9131 14.8782 163.3849 -71.0102 -2.9494 87.9895 126.9720 63.6054 -51.0015 -11.9788 17.7386 6.2750 -152.3397 47.0118 156.8134 144.3971 85.9423 -115.1193 -0.0127 -15.1786 -27.8076 -87.8980 36.9627 -67.4914 29.1070 12.4307 -68.2727 -0.0322 -2.8216 1.2558 -2.8237 5.6831 44.7888 -59.9313 -41.9915 72.7733 20.2352 -18.2686 49.9680 2.0178 2.9635 2.0067 -44.9808 27.8294 102.2469 -4.1730 46.0162 -10.0321 -13.2464 -2.0351 2.0787 9.1882 -19.9326 9.6866 -0.8322 -16.3361 83.1714 147.9299 81.1707 -148.2307 -13.7457 -12.9352 0.2941 0.6173 -34.6182 -30.6658 
0.0000 93.1000 0.0000 -60.0479 17.6137 159.3533 -70.9959 0.4687 87.9983 124.1032 64.2999 -45.5623 -10.4300 18.0804 5.8189 -152.2621 44.8104 159.9153 -167.9317 84.9668 -161.0096 0.9311 -13.8024 -27.9548 -85.9403 42.1797 -66.7441 25.9511 15.2300 -61.0393 0.0377 0.0927 -0.1584 -1.9754 5.4277 45.2312 -60.9493 -40.3466 70.7448 19.8898 -17.5885 50.9152 -0.4146 0.0721 -0.0193 -51.9829 24.8370 104.0168 -2.9382 38.2308 -5.9753 -14.8506 8.4869 1.7482 6.1093 -14.6273 6.1629 -1.8211 -19.2689 78.8785 118.9311 84.9749 -117.2822 -11.6138 -14.8479 1.7213 0.1919 -30.5915 -30.3661 
0.0000 93.1000 0.0000 -58.0087 21.3002 153.3405 -71.0005 -0.1515 87.9996 121.0070 65.8474 -40.9685 -9.9021 18.4948 6.0107 -155.2504 42.9114 163.2856 -154.9888 83.1765 -173.3472 0.3727 -13.1505 -28.1211 -85.0708 46.8605 -64.7277 21.9238 16.0752 -55.4921 -0.1360 -0.0887 -0.0232 -2.4743 5.3825 47.0679 -65.0665 -34.9307 70.0214 19.8979 -17.0786 51.9178 -0.2112 0.2799 0.1901 -57.1285 19.4048 98.9265 -2.2087 31.9152 -3.4001 -16.0466 17.1686 3.3406 3.0174 -9.1016 6.9343 -2.8791 -19.4874 75.1131 54.1056 85.4455 -52.2311 -11.1727 -12.7190 1.4065 0.3109 -32.3235 -31.7697 
0.0000 93.1000 0.0000 -53.8908 25.0035 148.1010 -71.0064 -0.3264 87.9992 119.0301 67.0608 -38.3033 -8.7923 19.1562 6.1819 -159.3360 41.9925 168.1815 -157.2036 82.0498 -170.4296 0.1028 -12.5728 -29.0711 -84.9729 50.9219 -61.6580 18.8480 15.6209 -50.9101 0.0378 -0.1458 0.0701 -2.6828 5.3174 48.7864 -69.0176 -29.2356 70.8266 20.3071 -16.4023 54.8516 -0.0948 0.2376 0.1904 -56.3906 14.0035 92.0976 -2.5787 38.1157 -2.7224 -10.8006 11.8425 2.4213 -0.2248 -6.2641 10.3860 -6.0784 -16.9209 72.9983 24.0924 81.1627 -22.0592 -11.3614 -8.7704 1.0388 0.1529 -29.2858 -30.0017 
0.0000 93.1000 0.0000 -49.0683 29.7419 141.0033 -71.0005 -0.2643 87.9982 120.0370 68.0108 -37.0045 -7.1275 19.8379 6.0064 -163.3814 40.2302 172.2662 -155.0390 79.9464 -171.6546 0.1852 -12.1100 -29.0034 -82.8560 55.2943 -59.6582 17.1363 16.0854 -48.0968 0.3901 -0.1055 -0.0353 -2.6213 5.0667 49.0564 -72.2101 -24.1876 74.0032 22.7590 -15.3009 59.0480 0.0338 0.0945 0.2370 -52.9181 10.9030 90.8915 -3.8744 50.1391 -4.9481 -8.1779 6.4231 1.3777 0.2580 -6.7094 12.0597 -10.9201 -11.1372 72.0678 13.0822 75.9715 -12.0884 -9.9322 -12.9896 1.1692 0.6194 -24.7222 -19.9938 
0.0000 93.1000 0.0000 -43.0425 32.8742 137.0465 -70.9970 -0.4218 87.9976 122.0501 69.1125 -36.6451 -5.8344 21.2907 5.0013 -167.2955 38.8200 176.2254 -154.1960 78.9458 -171.4315 0.5754 -12.2884 -30.1090 -74.8908 58.1978 -64.5527 16.9005 18.1476 -45.0716 0.3495 -0.4876 0.2213 -2.4314 5.0854 48.2081 -76.9736 -21.8681 79.0626 26.9365 -12.5099 65.8280 0.3166 0.4474 0.6287 -45.8653 9.7204 90.1407 -7.8546 65.2254 -5.0105 -6.9096 4.5799 0.8593 2.0290 -8.9742 11.5249 -15.6738 -5.2679 71.9087 7.9854 72.2615 -9.9411 -10.5414 -19.1594 1.2034 0.4360 -21.3059 -8.2586 
0.0000 93.1000 0.0000 -37.9568 35.4725 131.1839 -70.9944 -0.7270 87.9967 124.9589 70.4535 -38.3816 -4.7894 22.9499 4.0426 -172.3411 37.9065 179.0763 -155.6132 78.0707 -170.3808 2.3265 -12.7523 -30.9856 -66.2164 61.2326 -70.6783 17.2268 19.7677 -42.1667 -0.3536 -1.4658 1.0208 -1.3834 5.6258 46.7002 -79.8230 -20.5644 83.7726 29.5881 -9.1260 74.8643 1.0540 1.6908 1.9901 -35.4088 8.2456 88.9789 -25.9906 79.0530 8.9440 -6.4335 3.8040 0.0655 3.1818 -11.9322 11.2011 -19.4248 -1.0632 73.2807 7.0770 69.4827 -5.8167 -12.4124 -19.8581 0.3627 1.9697 -23.1687 -15.9315 
